<svg version="1.1" xmlns="http://www.w3.org/2000/svg" xmlns:xlink="http://www.w3.org/1999/xlink" x="0px" y="0px" viewBox="0 0 1000 1000" style="enable-background:new 0 0 1000 1000;" xml:space="preserve">
		<polygon fill="#ADE5FF" points="374.9,444 338.1,470.7 338.1,159.6 566.4,308.5 566.4,275.9 310.8,109.1 310.8,524.4 374.9,477.8
							"/>
		<polygon fill="#ADE5FF" points="651.1,171.7 651.1,480.4 420.5,318.5 420.5,351.9 678.5,533 678.5,115.4 612,167.7 612,202.5	"/>
		<polygon fill="#ADE5FF" points="798.8,174.7 725.9,220.3 725.9,256.7 798.8,211.1	"/>
		<polygon fill="#ADE5FF" points="197.2,475.5 270.1,429.9 270.1,393.5 197.2,439	"/>
		<polygon fill="#ADE5FF" points="267.7,805.1 180.5,692.5 154,692.5 154,855.4 182.1,855.4 182.1,739.5 271.9,855.4 295.9,855.4 295.9,692.5 267.7,692.5"/>
		<path fill="#ADE5FF" d="M429.1,689.7c-50,0-85.4,38.4-85.4,84.4c0,46.1,34.9,84,84.9,84c50,0,85.4-38.4,85.4-84.4
			C514,727.7,479.1,689.7,429.1,689.7z M429.1,831.9c-32.3,0-55.4-26.3-55.4-58.2c0-31.9,22.6-57.7,54.9-57.7
			c32.3,0,55.4,26.3,55.4,58.2C484,806,461.4,831.9,429.1,831.9z"/>
		<polygon fill="#ADE5FF" points="618.6,817.7 569.5,692.5 537.9,692.5 605.5,856.5 630.7,856.5 698.4,692.5 667.4,692.5"/>
		<path fill="#ADE5FF" d="M800.4,691.4h-26.5l-71.6,164h29.3l16.7-39.3h77l16.5,39.3H872L800.4,691.4z M758.7,790.7l27.9-65.1 l28.1,65.1H758.7z"/>
</svg>
